<svg xmlns="http://www.w3.org/2000/svg" width="512" height="512" viewBox="0 0 512 512">
<rect x="0" y="0" width="512" height="512" fill="#000000"></rect>
<path d="M 254.00 115.50 L 240.00 114.50 L 227.50 109.00 L 192.50 26.00 L 216.00 20.50 L 245.00 17.50 L 281.00 17.50 L 316.00 21.50 L 276.50 108.00 L 271.00 111.50 L 254.00 115.50 Z M 175.00 114.50 L 158.00 113.50 L 142.50 88.00 L 119.50 61.00 L 121.00 57.50 L 141.00 44.50 L 175.00 30.50 L 205.50 93.00 L 190.00 108.50 L 175.00 114.50 Z M 342.00 121.50 L 316.00 116.50 L 298.50 105.00 L 330.00 32.50 L 356.00 42.50 L 376.50 55.00 L 346.50 119.00 L 342.00 121.50 Z M 89.00 194.50 L 22.50 191.00 L 34.50 155.00 L 50.50 125.00 L 76.50 90.00 L 101.00 65.50 L 121.50 86.00 L 132.50 101.00 L 143.50 122.00 L 128.00 132.50 L 112.50 149.00 L 103.50 163.00 L 89.00 194.50 Z M 416.00 196.50 L 413.50 195.00 L 409.50 182.00 L 395.50 157.00 L 379.00 139.50 L 361.50 127.00 L 394.00 65.50 L 407.00 69.50 L 425.00 79.50 L 451.50 104.00 L 473.50 140.00 L 481.50 161.00 L 487.50 186.00 L 484.00 188.50 L 416.00 196.50 Z M 24.00 271.50 L 19.50 271.00 L 20.00 204.50 L 94.50 210.00 L 93.00 259.50 L 24.00 271.50 Z M 490.00 294.50 L 419.00 292.50 L 413.50 290.00 L 414.00 211.50 L 491.50 207.00 L 490.00 294.50 Z M 102.00 390.50 L 18.50 389.00 L 18.00 288.50 L 97.00 278.50 L 98.50 280.00 L 102.00 390.50 Z M 419.00 393.50 L 411.50 393.00 L 411.50 310.00 L 493.00 309.50 L 491.50 385.00 L 419.00 393.50 Z M 497.00 493.50 L 406.00 492.50 L 406.50 412.00 L 496.00 401.50 L 497.00 493.50 Z M 104.00 492.50 L 13.50 492.00 L 19.00 405.50 L 101.50 404.00 L 104.00 492.50 Z" fill="#d30000" fill-rule="evenodd" stroke="none"></path>
<path d="M 391.00 452.50 L 339.50 452.00 L 357.50 434.00 L 361.50 423.00 L 361.50 409.00 L 356.50 396.00 L 350.50 389.00 L 343.00 382.50 L 330.00 377.50 L 312.00 378.50 L 302.00 383.50 L 291.50 394.00 L 285.50 407.00 L 286.50 428.00 L 292.50 439.00 L 306.00 449.50 L 307.00 452.50 L 211.00 452.50 L 206.00 432.50 L 174.50 432.00 L 174.50 401.00 L 206.00 401.50 L 207.50 398.00 L 213.50 371.00 L 201.00 361.50 L 199.00 362.50 L 186.50 355.00 L 200.50 329.00 L 202.00 327.50 L 208.00 330.50 L 229.00 343.50 L 250.50 320.00 L 245.00 311.50 L 227.00 324.50 L 211.00 302.50 L 193.00 304.50 L 182.00 328.50 L 152.50 316.00 L 163.50 291.00 L 152.00 276.50 L 127.00 279.50 L 123.50 258.00 L 125.00 246.50 L 147.50 244.00 L 149.50 235.00 L 155.50 225.00 L 142.50 207.00 L 145.00 202.50 L 167.00 186.50 L 181.00 205.50 L 190.00 202.50 L 203.00 202.50 L 212.00 182.50 L 240.00 193.50 L 241.50 196.00 L 232.50 216.00 L 245.00 234.50 L 257.00 232.50 L 269.50 234.00 L 271.50 264.00 L 247.00 266.50 L 238.50 285.00 L 243.00 290.50 L 263.00 279.50 L 279.00 305.50 L 307.50 298.00 L 308.00 266.50 L 339.00 266.50 L 339.50 298.00 L 368.00 306.50 L 383.50 280.00 L 391.50 283.00 L 391.00 452.50 Z M 202.50 279.00 L 213.00 274.50 L 218.50 268.00 L 221.50 261.00 L 221.50 249.00 L 218.50 242.00 L 212.00 235.50 L 204.00 231.50 L 191.00 231.50 L 184.00 234.50 L 176.50 242.00 L 173.50 250.00 L 173.50 260.00 L 176.50 268.00 L 183.00 275.50 L 192.00 279.50 L 202.50 279.00 Z" fill="#ffd800" fill-rule="evenodd" stroke="none"></path>
</svg>